<svg width="300" height="300" viewBox="0 0 300 300" fill="none" xmlns="http://www.w3.org/2000/svg">
<path fill-rule="evenodd" clip-rule="evenodd" d="M100.439 159.323C105.428 155.106 110.29 141.894 102.281 133C96.1717 126.216 96.836 124.256 95.731 118.352C94.6259 112.448 91.9722 102.91 84.2368 100.696C76.5013 98.482 71.4601 110.382 68.145 122.191C64.8298 133.999 56.1398 139.079 62.8668 151.819C67.5678 160.723 84.7225 172.608 100.439 159.323Z" fill="white"/>
<path fill-rule="evenodd" clip-rule="evenodd" d="M82.4002 100.696C81.352 100.696 80.3284 100.972 79.341 101.523C75.2562 103.804 71.6773 110.587 68.3998 122.262C67.3531 125.99 65.8103 128.983 64.3181 131.878C61.0939 138.132 58.5472 143.071 63.1008 151.696C65.7664 156.744 72.5303 162.934 81.0825 164.593C87.8465 165.905 94.4805 164.014 100.268 159.121C102.847 156.941 105.811 151.831 106.224 145.765C106.455 142.376 105.924 137.441 102.084 133.177C96.9055 127.426 96.5488 125.135 95.9011 120.974C95.7767 120.174 95.6481 119.347 95.4708 118.401C93.6057 108.435 89.8015 102.564 84.1639 100.951C83.5701 100.78 82.9812 100.696 82.4002 100.696ZM85.2475 165.528C83.8356 165.528 82.4117 165.39 80.9814 165.113C72.2586 163.42 65.3554 157.099 62.6328 151.943C57.9502 143.075 60.6832 137.773 63.8478 131.635C65.3278 128.764 66.8581 125.795 67.8901 122.119C71.2077 110.302 74.869 103.414 79.083 101.061C80.745 100.133 82.5035 99.9246 84.3096 100.442C90.1558 102.115 94.0859 108.125 95.9911 118.304C96.1697 119.258 96.3048 120.126 96.4241 120.893C97.0563 124.952 97.4044 127.189 102.477 132.822C106.441 137.224 106.99 142.31 106.752 145.801C106.329 152.021 103.271 157.276 100.61 159.526L100.439 159.323L100.61 159.526C95.9165 163.492 90.6735 165.528 85.2475 165.528Z" fill="black"/>
<path fill-rule="evenodd" clip-rule="evenodd" d="M81.9096 187.11C81.7635 187.11 81.645 186.991 81.645 186.845V145.434C81.645 145.288 81.7635 145.169 81.9096 145.169C82.0558 145.169 82.1742 145.288 82.1742 145.434V186.845C82.1742 186.991 82.0558 187.11 81.9096 187.11Z" fill="black"/>
<path fill-rule="evenodd" clip-rule="evenodd" d="M179.246 192.911H256.291V105.32H179.246V192.911Z" fill="white"/>
<path fill-rule="evenodd" clip-rule="evenodd" d="M179.51 192.646H256.026V105.584H179.51V192.646ZM256.291 193.175H179.246C179.1 193.175 178.981 193.057 178.981 192.911V105.32C178.981 105.174 179.1 105.055 179.246 105.055H256.291C256.438 105.055 256.555 105.174 256.555 105.32V192.911C256.555 193.057 256.438 193.175 256.291 193.175Z" fill="black"/>
<path fill-rule="evenodd" clip-rule="evenodd" d="M251.092 87.3597H145.045L133.474 107.573L259.591 107.896L251.092 87.3597Z" fill="black"/>
<path fill-rule="evenodd" clip-rule="evenodd" d="M110.922 192.911H193.619V78.9037H110.922V192.911Z" fill="white"/>
<path fill-rule="evenodd" clip-rule="evenodd" d="M193.619 193.175H172.642C172.495 193.175 172.376 193.057 172.376 192.911C172.376 192.764 172.495 192.646 172.642 192.646H193.354V79.1685H111.187V124.948C111.187 125.094 111.068 125.212 110.922 125.212C110.776 125.212 110.658 125.094 110.658 124.948V78.9039C110.658 78.7577 110.776 78.6393 110.922 78.6393H193.619C193.765 78.6393 193.883 78.7577 193.883 78.9039V192.911C193.883 193.057 193.765 193.175 193.619 193.175Z" fill="black"/>
<path fill-rule="evenodd" clip-rule="evenodd" d="M110.922 174.343C110.922 174.343 110.921 174.343 110.921 174.343C110.775 174.342 110.657 174.223 110.658 174.077L110.806 144.968C110.807 144.822 110.925 144.704 111.071 144.704C111.071 144.704 111.072 144.704 111.072 144.704C111.218 144.706 111.336 144.824 111.335 144.971L111.187 174.079C111.186 174.226 111.068 174.343 110.922 174.343Z" fill="black"/>
<path fill-rule="evenodd" clip-rule="evenodd" d="M193.339 83.9775H111.201L152.27 46.1733L193.339 83.9775Z" fill="white"/>
<path fill-rule="evenodd" clip-rule="evenodd" d="M152.27 46.1733L192.176 82.9069H198.665L152.27 40.2L105.875 82.9069H112.364L152.27 46.1733Z" fill="black"/>
<path fill-rule="evenodd" clip-rule="evenodd" d="M154.729 68.3687H149.812C138.876 68.3687 130.01 77.2337 130.01 88.1692V92.181H174.529V88.1692C174.529 77.2337 165.665 68.3687 154.729 68.3687Z" fill="white"/>
<path fill-rule="evenodd" clip-rule="evenodd" d="M130.276 91.9164H174.265V88.1693C174.265 77.3972 165.502 68.6333 154.729 68.6333H149.812C139.039 68.6333 130.276 77.3972 130.276 88.1693V91.9164ZM174.529 92.4458H130.01C129.864 92.4458 129.746 92.3273 129.746 92.181V88.1693C129.746 77.1052 138.748 68.104 149.812 68.104H154.729C165.793 68.104 174.794 77.1052 174.794 88.1693V92.181C174.794 92.3273 174.676 92.4458 174.529 92.4458Z" fill="black"/>
<path fill-rule="evenodd" clip-rule="evenodd" d="M152.27 89.5986C152.124 89.5986 152.005 89.4801 152.005 89.334V72.51C152.005 72.364 152.124 72.2454 152.27 72.2454C152.417 72.2454 152.534 72.364 152.534 72.51V89.334C152.534 89.4801 152.417 89.5986 152.27 89.5986Z" fill="black"/>
<path fill-rule="evenodd" clip-rule="evenodd" d="M134.916 87.7146C134.848 87.7146 134.78 87.6887 134.729 87.637C134.626 87.5337 134.626 87.3662 134.729 87.2628L147.889 74.1018C147.992 73.9985 148.16 73.9985 148.264 74.1018C148.367 74.2053 148.367 74.3727 148.264 74.4761L135.103 87.637C135.052 87.6887 134.983 87.7146 134.916 87.7146Z" fill="black"/>
<path fill-rule="evenodd" clip-rule="evenodd" d="M156.889 85.4256C156.821 85.4256 156.754 85.3998 156.702 85.3481C156.599 85.2448 156.599 85.0773 156.702 84.9739L165.4 76.2762C165.503 76.1729 165.67 76.1729 165.774 76.2762C165.877 76.3797 165.877 76.5471 165.774 76.6505L157.075 85.3481C157.024 85.3998 156.956 85.4256 156.889 85.4256Z" fill="black"/>
<path fill-rule="evenodd" clip-rule="evenodd" d="M118.839 183.076H126.086V138.054H118.839V183.076Z" fill="white"/>
<path fill-rule="evenodd" clip-rule="evenodd" d="M174.746 183.076H181.993V138.054H174.746V183.076Z" fill="white"/>
<path fill-rule="evenodd" clip-rule="evenodd" d="M131.518 184.049H150.412V140.839H131.518V184.049Z" fill="white"/>
<path fill-rule="evenodd" clip-rule="evenodd" d="M131.782 183.784H150.148V141.104H131.782V183.784ZM150.412 184.313H131.518C131.371 184.313 131.252 184.194 131.252 184.049V140.839C131.252 140.693 131.371 140.575 131.518 140.575H150.412C150.558 140.575 150.677 140.693 150.677 140.839V184.049C150.677 184.194 150.558 184.313 150.412 184.313Z" fill="black"/>
<path fill-rule="evenodd" clip-rule="evenodd" d="M150.421 184.049H169.316V140.839H150.421V184.049Z" fill="white"/>
<path fill-rule="evenodd" clip-rule="evenodd" d="M150.686 183.784H169.051V141.104H150.686V183.784ZM169.316 184.313H150.421C150.275 184.313 150.157 184.194 150.157 184.049V140.839C150.157 140.693 150.275 140.575 150.421 140.575H169.316C169.463 140.575 169.58 140.693 169.58 140.839V184.049C169.58 184.194 169.463 184.313 169.316 184.313Z" fill="black"/>
<path fill-rule="evenodd" clip-rule="evenodd" d="M129.996 114.152H174.494V95.8408H129.996V114.152Z" fill="white"/>
<path fill-rule="evenodd" clip-rule="evenodd" d="M130.26 113.887H174.229V96.1054H130.26V113.887ZM174.494 114.416H129.996C129.85 114.416 129.731 114.298 129.731 114.152V95.8408C129.731 95.6947 129.85 95.5762 129.996 95.5762H174.494C174.641 95.5762 174.76 95.6947 174.76 95.8408V114.152C174.76 114.298 174.641 114.416 174.494 114.416Z" fill="black"/>
<path fill-rule="evenodd" clip-rule="evenodd" d="M138.808 109.568C138.739 109.568 138.672 109.542 138.62 109.49C138.516 109.387 138.516 109.22 138.62 109.116L148.841 98.8955C148.944 98.7922 149.112 98.7922 149.215 98.8955C149.318 98.9989 149.318 99.1663 149.215 99.2698L138.994 109.49C138.942 109.542 138.875 109.568 138.808 109.568Z" fill="black"/>
<path fill-rule="evenodd" clip-rule="evenodd" d="M157.039 111.134C156.972 111.134 156.905 111.108 156.852 111.056C156.749 110.953 156.749 110.785 156.852 110.682L161.051 106.484C161.154 106.381 161.321 106.381 161.425 106.484C161.528 106.588 161.528 106.755 161.425 106.858L157.226 111.056C157.175 111.108 157.108 111.134 157.039 111.134Z" fill="black"/>
<path fill-rule="evenodd" clip-rule="evenodd" d="M105.875 196.016H198.665V183.076H105.875V196.016Z" fill="white"/>
<path fill-rule="evenodd" clip-rule="evenodd" d="M188.879 187.571H115.662C115.516 187.571 115.397 187.452 115.397 187.306C115.397 187.16 115.516 187.042 115.662 187.042H188.879C189.025 187.042 189.143 187.16 189.143 187.306C189.143 187.452 189.025 187.571 188.879 187.571Z" fill="black"/>
<path fill-rule="evenodd" clip-rule="evenodd" d="M188.879 192.008H115.662C115.516 192.008 115.397 191.891 115.397 191.744C115.397 191.598 115.516 191.479 115.662 191.479H188.879C189.025 191.479 189.143 191.598 189.143 191.744C189.143 191.891 189.025 192.008 188.879 192.008Z" fill="black"/>
<path fill-rule="evenodd" clip-rule="evenodd" d="M198.665 196.282H177.757C177.611 196.282 177.493 196.163 177.493 196.016C177.493 195.87 177.611 195.752 177.757 195.752H198.401V183.34L148.295 183.254C148.148 183.254 148.031 183.136 148.031 182.989C148.031 182.843 148.15 182.725 148.295 182.725C148.296 182.725 148.296 182.725 148.296 182.725L198.666 182.81C198.812 182.81 198.93 182.929 198.93 183.076V196.016C198.93 196.163 198.811 196.282 198.665 196.282Z" fill="black"/>
<path fill-rule="evenodd" clip-rule="evenodd" d="M126.086 179.021C125.94 179.021 125.822 178.902 125.822 178.756V138.318H119.104V175.58C119.104 175.726 118.986 175.844 118.839 175.844C118.693 175.844 118.575 175.726 118.575 175.58V138.054C118.575 137.908 118.693 137.789 118.839 137.789H126.086C126.233 137.789 126.352 137.908 126.352 138.054V178.756C126.352 178.902 126.233 179.021 126.086 179.021Z" fill="black"/>
<path fill-rule="evenodd" clip-rule="evenodd" d="M181.993 179.197C181.848 179.197 181.729 179.078 181.729 178.932V138.318H175.01V178.579C175.01 178.726 174.893 178.843 174.746 178.843C174.6 178.843 174.481 178.726 174.481 178.579V138.054C174.481 137.908 174.6 137.789 174.746 137.789H181.993C182.14 137.789 182.258 137.908 182.258 138.054V178.932C182.258 179.078 182.14 179.197 181.993 179.197Z" fill="black"/>
<path fill-rule="evenodd" clip-rule="evenodd" d="M118.657 142.501H182.168V121.066H118.657V142.501Z" fill="white"/>
<path fill-rule="evenodd" clip-rule="evenodd" d="M118.921 142.237H181.903V121.331H118.921V142.237ZM182.168 142.766H118.657C118.511 142.766 118.392 142.648 118.392 142.501V121.066C118.392 120.92 118.511 120.802 118.657 120.802H182.168C182.314 120.802 182.432 120.92 182.432 121.066V142.501C182.432 142.648 182.314 142.766 182.168 142.766Z" fill="black"/>
<path fill-rule="evenodd" clip-rule="evenodd" d="M213.205 142.133H245.82V114.596H213.205V142.133Z" fill="white"/>
<path fill-rule="evenodd" clip-rule="evenodd" d="M213.47 141.869H245.556V114.861H213.47V141.869ZM245.82 142.398H213.205C213.059 142.398 212.941 142.279 212.941 142.133V114.596C212.941 114.45 213.059 114.332 213.205 114.332H245.82C245.966 114.332 246.085 114.45 246.085 114.596V142.133C246.085 142.279 245.966 142.398 245.82 142.398Z" fill="black"/>
<path fill-rule="evenodd" clip-rule="evenodd" d="M229.513 139.078C229.367 139.078 229.248 138.959 229.248 138.814V117.33C229.248 117.184 229.367 117.066 229.513 117.066C229.66 117.066 229.777 117.184 229.777 117.33V138.814C229.777 138.959 229.66 139.078 229.513 139.078Z" fill="black"/>
<path fill-rule="evenodd" clip-rule="evenodd" d="M214.934 139.304C214.867 139.304 214.799 139.279 214.747 139.228C214.644 139.123 214.644 138.956 214.747 138.853L227.7 125.9C227.803 125.797 227.971 125.797 228.074 125.9C228.178 126.004 228.178 126.172 228.074 126.275L215.122 139.228C215.07 139.279 215.003 139.304 214.934 139.304Z" fill="black"/>
<path fill-rule="evenodd" clip-rule="evenodd" d="M216.985 126.836C216.918 126.836 216.85 126.811 216.798 126.76C216.695 126.655 216.695 126.488 216.798 126.385L225.649 117.534C225.752 117.43 225.92 117.43 226.024 117.534C226.127 117.637 226.127 117.805 226.024 117.908L217.172 126.76C217.121 126.811 217.054 126.836 216.985 126.836Z" fill="black"/>
<path fill-rule="evenodd" clip-rule="evenodd" d="M232.55 134.785C232.482 134.785 232.415 134.759 232.363 134.707C232.26 134.604 232.26 134.437 232.363 134.333L240.914 125.783C241.018 125.68 241.184 125.68 241.288 125.783C241.392 125.886 241.392 126.053 241.288 126.156L232.738 134.707C232.686 134.759 232.618 134.785 232.55 134.785Z" fill="black"/>
<path fill-rule="evenodd" clip-rule="evenodd" d="M213.205 182.755H245.82V155.218H213.205V182.755Z" fill="white"/>
<path fill-rule="evenodd" clip-rule="evenodd" d="M213.47 182.49H245.556V155.483H213.47V182.49ZM245.82 183.02H213.205C213.059 183.02 212.941 182.902 212.941 182.755V155.219C212.941 155.072 213.059 154.954 213.205 154.954H245.82C245.966 154.954 246.085 155.072 246.085 155.219V182.755C246.085 182.902 245.966 183.02 245.82 183.02Z" fill="black"/>
<path fill-rule="evenodd" clip-rule="evenodd" d="M229.513 179.7C229.367 179.7 229.248 179.581 229.248 179.435V157.952C229.248 157.806 229.367 157.687 229.513 157.687C229.66 157.687 229.777 157.806 229.777 157.952V179.435C229.777 179.581 229.66 179.7 229.513 179.7Z" fill="black"/>
<path fill-rule="evenodd" clip-rule="evenodd" d="M214.934 179.927C214.867 179.927 214.799 179.9 214.747 179.849C214.644 179.746 214.644 179.578 214.747 179.474L227.7 166.522C227.803 166.418 227.971 166.418 228.074 166.522C228.178 166.626 228.178 166.793 228.074 166.896L215.122 179.849C215.07 179.9 215.003 179.927 214.934 179.927Z" fill="black"/>
<path fill-rule="evenodd" clip-rule="evenodd" d="M216.985 167.459C216.918 167.459 216.85 167.432 216.798 167.381C216.695 167.278 216.695 167.111 216.798 167.006L225.649 158.156C225.752 158.052 225.92 158.052 226.024 158.156C226.127 158.26 226.127 158.426 226.024 158.53L217.172 167.381C217.121 167.432 217.054 167.459 216.985 167.459Z" fill="black"/>
<path fill-rule="evenodd" clip-rule="evenodd" d="M232.55 175.406C232.482 175.406 232.415 175.381 232.363 175.33C232.26 175.226 232.26 175.058 232.363 174.955L240.914 166.404C241.018 166.301 241.184 166.301 241.288 166.404C241.392 166.507 241.392 166.675 241.288 166.778L232.738 175.33C232.686 175.381 232.618 175.406 232.55 175.406Z" fill="black"/>
<path fill-rule="evenodd" clip-rule="evenodd" d="M54.4619 219.295C54.4619 220.937 54.7871 222.564 55.4186 224.08L56.111 225.742C57.0818 228.071 59.0096 229.871 61.4012 230.678L71.6803 234.222H204.793L213.347 231.599C215.651 230.892 217.295 228.859 217.505 226.459L217.865 222.342C217.915 221.701 217.794 221.058 217.513 220.48C217.166 219.766 217.044 218.964 217.16 218.178L216.173 211.535C216.325 210.504 215.788 209.494 214.847 209.045L214.643 208.996C203.908 203.876 192.414 201.155 180.608 199.717L175.646 199.114L169.994 196.074C138.637 176.791 93.4728 174.792 59.9979 187.578L55.116 198.148L56.1245 206.978L54.816 213.728C54.5804 214.944 54.4619 216.179 54.4619 217.417V219.295Z" fill="white"/>
<path fill-rule="evenodd" clip-rule="evenodd" d="M106.122 183.042C96.396 183.042 86.4607 184.284 76.6128 186.82C75.539 187.096 74.7891 188.107 74.7891 189.278V196.757C74.7891 197.318 75.183 197.785 75.7051 197.844C82.0557 198.553 88.4804 199.024 94.8011 199.242L165.708 201.749C149.316 189.484 128.266 183.042 106.122 183.042ZM166.536 202.307C166.532 202.307 166.53 202.307 166.526 202.307L94.7826 199.771C88.4487 199.553 82.0104 199.081 75.6463 198.37C74.8559 198.281 74.2599 197.588 74.2599 196.757V189.278C74.2599 187.866 75.1732 186.643 76.4808 186.307C91.7434 182.377 107.719 181.47 122.681 183.68C139.345 186.144 154.154 192.251 166.697 201.833C166.788 201.902 166.824 202.024 166.786 202.132C166.747 202.237 166.648 202.307 166.536 202.307Z" fill="black"/>
<path fill-rule="evenodd" clip-rule="evenodd" d="M55.4312 197.022C59.3762 196.206 63.2582 197.383 65.452 200.132C67.0778 202.169 67.3018 204.475 67.3298 205.549C67.3298 205.549 66.8736 208.012 55.9301 207.076L54.892 197.974C55.2076 197.753 55.3872 197.398 55.4312 197.022Z" fill="white"/>
<path fill-rule="evenodd" clip-rule="evenodd" d="M56.1685 206.831C65.9182 207.635 66.9846 205.709 67.064 205.516C67.0219 204.113 66.6695 202.081 65.245 200.297C63.15 197.671 59.49 196.511 55.6607 197.246C55.5835 197.581 55.4125 197.876 55.1716 198.09L56.1685 206.831ZM60.4072 207.552C59.1425 207.552 57.6563 207.49 55.9076 207.34C55.782 207.329 55.6814 207.232 55.6672 207.106L54.629 198.004C54.618 197.906 54.661 197.812 54.7406 197.756C54.9748 197.593 55.1306 197.315 55.1683 196.992C55.1815 196.878 55.2659 196.786 55.3776 196.763C59.4671 195.917 63.4064 197.144 65.6587 199.967C67.1882 201.883 67.5554 204.056 67.5942 205.542C67.5948 205.56 67.5934 205.579 67.59 205.597C67.547 205.829 67.0025 207.552 60.4072 207.552Z" fill="black"/>
<path fill-rule="evenodd" clip-rule="evenodd" d="M66.1844 206.491C65.145 206.86 63.196 207.647 55.9301 207.076L55.5764 203.975C55.5764 203.975 54.9437 199.913 58.513 201.444C62.47 203.143 66.1844 206.491 66.1844 206.491Z" fill="white"/>
<path fill-rule="evenodd" clip-rule="evenodd" d="M56.1682 206.83C62.3293 207.298 64.522 206.776 65.6665 206.392C64.6641 205.541 61.5965 203.056 58.4086 201.688C57.4863 201.292 56.8035 201.258 56.3785 201.587C55.5819 202.204 55.8353 203.917 55.8379 203.935L56.1682 206.83ZM60.4869 207.542C59.2522 207.542 57.7505 207.485 55.9095 207.34C55.7831 207.33 55.6815 207.232 55.6672 207.106L55.3135 204.005C55.3021 203.933 55.011 201.978 56.0533 201.169C56.6415 200.713 57.5043 200.723 58.6174 201.202C62.5689 202.897 66.3241 206.261 66.3616 206.294C66.4308 206.357 66.4621 206.452 66.444 206.543C66.4258 206.634 66.3607 206.71 66.2729 206.74L66.1841 206.772C65.3667 207.064 64.0264 207.542 60.4869 207.542Z" fill="black"/>
<path fill-rule="evenodd" clip-rule="evenodd" d="M68.0009 233.994C68.0803 233.996 68.1742 233.998 68.2851 233.998H202.579C203.89 233.998 205.189 233.803 206.442 233.419L213.07 231.388C214.496 230.951 215.683 229.974 216.384 228.674L203.752 230.098C203.74 230.099 203.729 230.099 203.717 230.099L77.3652 227.664C77.3529 227.664 77.3405 227.663 77.3284 227.66L55.5168 224.149L56.1559 225.683C57.0969 227.941 58.9669 229.686 61.2865 230.47L67.4445 232.548C68.0743 232.76 68.3739 232.993 68.4156 233.303C68.4565 233.603 68.2314 233.824 68.0009 233.994ZM202.579 234.527H68.2851C67.5249 234.527 67.2409 234.481 67.1627 234.227C67.0865 233.978 67.3101 233.826 67.5263 233.68C67.63 233.61 67.8723 233.446 67.8912 233.365C67.8869 233.365 67.8156 233.232 67.2753 233.05L61.1173 230.971C58.6533 230.14 56.6669 228.286 55.6673 225.887L54.975 224.225C54.9313 224.12 54.8891 224.015 54.8481 223.908C54.814 223.82 54.8297 223.72 54.8895 223.646C54.949 223.573 55.0433 223.537 55.1371 223.552L77.394 227.136L203.71 229.57L216.803 228.095C216.899 228.084 216.99 228.125 217.045 228.2C217.102 228.277 217.114 228.377 217.075 228.464C216.354 230.114 214.95 231.365 213.224 231.894L206.597 233.926C205.294 234.325 203.942 234.527 202.579 234.527Z" fill="black"/>
<path fill-rule="evenodd" clip-rule="evenodd" d="M201.076 208.723C200.924 208.614 200.986 208.376 201.169 208.352C202.159 208.225 203.152 207.995 205.675 208.213C208.261 208.439 212.153 209.73 213.79 210.588C214.226 210.818 214.234 211.306 214.231 211.8C214.23 212.012 214.177 212.473 214.121 212.69C213.974 213.251 213.38 213.576 212.802 213.576H209.314C207.409 213.576 204.31 212.971 202.772 211.847L201.076 208.723Z" fill="white"/>
<path fill-rule="evenodd" clip-rule="evenodd" d="M203.594 208.387L206.026 210.1C207.185 210.916 208.538 211.445 209.942 211.632C211.304 211.435 212.888 211.121 213.1 210.952L213.34 210.659C211.634 209.843 208.126 208.692 205.652 208.477C204.994 208.42 204.305 208.39 203.594 208.387ZM209.944 212.164C209.933 212.164 209.921 212.164 209.91 212.162C208.408 211.968 206.959 211.405 205.721 210.533L202.62 208.349C202.526 208.283 202.487 208.165 202.519 208.056C202.553 207.947 202.651 207.871 202.766 207.868C203.783 207.842 204.77 207.87 205.698 207.95C208.388 208.184 212.275 209.497 213.877 210.336C213.948 210.373 213.998 210.44 214.014 210.518C214.03 210.596 214.009 210.677 213.959 210.739L213.496 211.3C213.205 211.652 211.169 211.991 209.982 212.161C209.969 212.164 209.957 212.164 209.944 212.164Z" fill="black"/>
<path fill-rule="evenodd" clip-rule="evenodd" d="M202.976 211.668C204.468 212.743 206.226 213.312 208.067 213.312H212.802C213.292 213.312 213.833 213.068 213.857 212.675L213.968 211.766C214.04 211.136 213.929 210.96 213.666 210.823L213.632 210.805C212.069 209.987 208.277 208.705 205.652 208.477C203.503 208.29 202.495 208.433 201.605 208.559C201.502 208.573 201.401 208.588 201.3 208.601C201.301 208.602 201.302 208.604 201.304 208.606L202.976 211.668ZM212.802 213.841H208.067C206.094 213.841 204.209 213.226 202.616 212.06C202.585 212.038 202.559 212.008 202.541 211.974L200.861 208.901C200.741 208.783 200.692 208.61 200.734 208.442C200.783 208.253 200.941 208.114 201.136 208.088C201.266 208.072 201.397 208.054 201.532 208.034C202.45 207.905 203.49 207.758 205.698 207.95C208.388 208.184 212.275 209.497 213.877 210.336L213.912 210.354C214.5 210.662 214.57 211.166 214.494 211.829L214.384 212.723C214.34 213.443 213.536 213.841 212.802 213.841Z" fill="black"/>
<path fill-rule="evenodd" clip-rule="evenodd" d="M123.646 204.2C124.096 204.264 124.537 204.301 124.962 204.311L134.383 204.54V203.539L123.646 203.288V204.2ZM134.647 205.075C134.645 205.075 134.644 205.075 134.641 205.075L124.949 204.84C124.43 204.828 123.889 204.778 123.34 204.69C123.211 204.67 123.116 204.559 123.116 204.428V203.017C123.116 202.945 123.145 202.877 123.196 202.828C123.247 202.778 123.32 202.751 123.388 202.752L134.653 203.016C134.797 203.02 134.912 203.137 134.912 203.281V204.811C134.912 204.882 134.884 204.95 134.832 205C134.783 205.049 134.717 205.075 134.647 205.075Z" fill="black"/>
<path fill-rule="evenodd" clip-rule="evenodd" d="M210.017 221.182C210.194 223.164 210.922 225.137 211.34 226.136C211.445 226.385 211.704 226.53 211.968 226.492C213.091 226.326 215.026 225.572 215.369 222.371C215.428 221.821 215.106 221.287 214.588 221.072C213.996 220.828 212.592 220.642 210.635 220.549C210.46 220.54 210.295 220.608 210.175 220.732C210.059 220.855 210.001 221.015 210.017 221.182ZM211.882 227.027C211.438 227.027 211.028 226.76 210.852 226.34C210.422 225.313 209.674 223.283 209.49 221.228C209.461 220.912 209.572 220.597 209.794 220.366C210.019 220.132 210.336 220.007 210.66 220.02C212.087 220.087 213.961 220.24 214.79 220.583C215.525 220.888 215.98 221.646 215.896 222.427C215.5 226.116 213.071 226.865 212.046 227.015C211.991 227.023 211.936 227.027 211.882 227.027Z" fill="black"/>
<path fill-rule="evenodd" clip-rule="evenodd" d="M210.607 220.548C210.444 220.548 210.289 220.615 210.175 220.733C210.059 220.855 210.001 221.015 210.017 221.182C210.194 223.164 210.922 225.137 211.34 226.136C211.432 226.354 211.642 226.493 211.871 226.498C211.402 224.56 211.273 222.577 211.492 220.598C211.182 220.577 210.89 220.561 210.636 220.549C210.626 220.549 210.617 220.548 210.607 220.548ZM211.884 227.027C211.438 227.027 211.028 226.76 210.852 226.34C210.422 225.313 209.674 223.283 209.49 221.228C209.461 220.912 209.572 220.597 209.794 220.366C210.019 220.132 210.336 220.007 210.66 220.02C210.994 220.036 211.39 220.058 211.806 220.09C211.878 220.096 211.945 220.13 211.991 220.186C212.036 220.241 212.058 220.314 212.05 220.385C211.796 222.409 211.91 224.42 212.388 226.384L212.455 226.658C212.472 226.729 212.46 226.802 212.42 226.864C212.382 226.925 212.32 226.967 212.249 226.981C212.179 226.994 212.112 227.005 212.048 227.015C211.993 227.023 211.938 227.027 211.884 227.027Z" fill="black"/>
<path fill-rule="evenodd" clip-rule="evenodd" d="M166.738 226.847C166.738 216.85 174.841 208.746 184.838 208.746C194.834 208.746 202.938 216.85 202.938 226.847C202.938 229.456 202.385 231.935 201.391 234.175L201.098 234.265H168.324C167.305 232.001 166.738 229.49 166.738 226.847Z" fill="white"/>
<path fill-rule="evenodd" clip-rule="evenodd" d="M168.496 234.001H201.059L201.198 233.958C202.177 231.71 202.673 229.318 202.673 226.847C202.673 217.012 194.672 209.011 184.838 209.011C175.003 209.011 167.003 217.012 167.003 226.847C167.003 229.336 167.504 231.742 168.496 234.001ZM201.098 234.53H168.324C168.22 234.53 168.125 234.469 168.083 234.374C167.015 232.001 166.474 229.468 166.474 226.847C166.474 216.72 174.712 208.482 184.838 208.482C194.964 208.482 203.203 216.72 203.203 226.847C203.203 229.433 202.675 231.935 201.634 234.283C201.602 234.353 201.542 234.406 201.469 234.428L201.176 234.518C201.151 234.526 201.125 234.53 201.098 234.53Z" fill="black"/>
<path fill-rule="evenodd" clip-rule="evenodd" d="M68.4374 231.217H63.4969C63.1498 229.818 62.9648 228.354 62.9648 226.847C62.9648 216.846 71.0719 208.739 81.0724 208.739C91.0728 208.739 99.1799 216.846 99.1799 226.847C99.1799 229.49 98.613 232.001 97.5947 234.265H68.4374V231.217Z" fill="white"/>
<path fill-rule="evenodd" clip-rule="evenodd" d="M68.7021 234.001H97.4226C98.4132 231.742 98.9152 229.336 98.9152 226.847C98.9152 217.008 90.9109 209.004 81.0725 209.004C71.2337 209.004 63.2295 217.008 63.2295 226.847C63.2295 228.232 63.3894 229.613 63.7051 230.953H68.4375C68.5835 230.953 68.7021 231.072 68.7021 231.217V234.001ZM97.5947 234.53H68.4375C68.2912 234.53 68.1727 234.412 68.1727 234.265V231.482H63.4969C63.3753 231.482 63.2693 231.4 63.24 231.282C62.8818 229.836 62.7001 228.344 62.7001 226.847C62.7001 216.715 70.942 208.474 81.0725 208.474C91.2028 208.474 99.4445 216.715 99.4445 226.847C99.4445 229.469 98.9033 232.001 97.836 234.374C97.7932 234.469 97.6987 234.53 97.5947 234.53Z" fill="black"/>
<path fill-rule="evenodd" clip-rule="evenodd" d="M164.682 200.143L161.927 196.823C161.539 196.356 160.963 196.085 160.356 196.085H157.903C156.863 196.085 155.989 196.868 155.875 197.902L155.692 199.561C155.642 200.011 155.743 200.464 155.978 200.85C156.344 201.448 156.991 201.816 157.692 201.826C160.321 201.862 166.633 201.928 166.496 201.722C166.36 201.518 165.4 200.761 165 200.45C164.884 200.36 164.777 200.257 164.682 200.143Z" fill="white"/>
<path fill-rule="evenodd" clip-rule="evenodd" d="M155.692 199.561L155.875 197.902C155.989 196.868 156.863 196.085 157.903 196.085H160.356C160.963 196.085 161.539 196.356 161.927 196.823L164.682 200.143C164.682 200.143 159.529 199.487 155.692 199.561Z" fill="white"/>
<path fill-rule="evenodd" clip-rule="evenodd" d="M164.682 200.143L161.927 196.823C161.539 196.356 160.963 196.085 160.356 196.085H157.903C156.863 196.085 155.989 196.868 155.875 197.902L155.692 199.561C155.642 200.011 155.743 200.464 155.978 200.85C156.344 201.448 156.991 201.816 157.692 201.826C160.321 201.862 166.633 201.928 166.496 201.722C166.36 201.518 165.4 200.761 165 200.45C164.884 200.36 164.777 200.257 164.682 200.143Z" fill="white"/>
<path fill-rule="evenodd" clip-rule="evenodd" d="M157.903 196.35C156.996 196.35 156.238 197.029 156.138 197.932L155.954 199.59C155.912 199.98 156 200.377 156.205 200.712C156.524 201.235 157.081 201.553 157.696 201.562C162.472 201.626 164.98 201.604 165.937 201.548C165.697 201.342 165.332 201.044 164.838 200.66C164.706 200.557 164.585 200.441 164.479 200.312L161.723 196.992C161.384 196.584 160.886 196.35 160.356 196.35H157.903ZM162.75 202.134C161.504 202.134 159.86 202.121 157.688 202.091C156.892 202.08 156.168 201.667 155.753 200.988C155.488 200.554 155.372 200.038 155.429 199.532L155.612 197.873C155.741 196.703 156.726 195.821 157.903 195.821H160.356C161.045 195.821 161.69 196.124 162.13 196.654L164.886 199.974C164.968 200.074 165.061 200.162 165.162 200.242C166.078 200.953 166.601 201.402 166.716 201.576C166.77 201.658 166.776 201.774 166.729 201.86C166.649 202.009 166.58 202.134 162.75 202.134Z" fill="black"/>
<path fill-rule="evenodd" clip-rule="evenodd" d="M68.0176 234C68.065 234 68.1166 234.001 68.1729 234.001H202.381C203.824 234.001 205.253 233.786 206.63 233.364L213.07 231.39C215.281 230.711 216.84 228.784 217.043 226.48L217.402 222.362C217.448 221.771 217.336 221.174 217.075 220.638C216.709 219.883 216.577 219.046 216.695 218.215C216.346 214.236 215.662 209.761 215.158 209.45L212.594 208.403C202.141 203.418 192.518 201.502 180.377 200.023L175.415 199.42C175.382 199.416 175.35 199.405 175.321 199.39L169.67 196.351C138.714 179.705 110.535 176.153 72.4082 184.091C69.365 184.726 60.5377 187.577 60.0618 187.73C59.3499 188.221 55.1695 197.604 55.2279 198.586L56.1879 206.992C56.191 207.018 56.19 207.046 56.1849 207.072L54.8764 213.823C54.6446 215.018 54.5271 216.244 54.5271 217.462V219.338C54.5271 220.955 54.8421 222.53 55.4636 224.021L56.1558 225.683C57.0973 227.942 58.9672 229.688 61.2865 230.471L67.5507 232.586C67.9573 232.723 68.4294 232.931 68.4711 233.317C68.5035 233.615 68.2675 233.832 68.0176 234ZM202.381 234.53H68.1729C67.5031 234.53 67.1793 234.5 67.1049 234.233C67.0346 233.98 67.2679 233.839 67.515 233.69C67.6345 233.618 67.9126 233.45 67.9449 233.363C67.9476 233.363 67.8519 233.246 67.3815 233.088L61.1173 230.972C58.6537 230.141 56.6672 228.287 55.6674 225.887L54.975 224.225C54.3265 222.668 53.9978 221.024 53.9978 219.338V217.462C53.9978 216.209 54.1186 214.951 54.3567 213.722L55.6575 207.011L54.7018 198.644C54.5978 197.732 58.8884 187.612 59.8664 187.238C59.9718 187.204 69.1603 184.228 72.3004 183.574C110.561 175.607 138.844 179.173 169.921 195.884L175.529 198.9L180.44 199.498C192.635 200.982 202.303 202.909 212.809 207.919L215.375 208.967C216.388 209.45 217.046 216.156 217.224 218.2C217.226 218.22 217.225 218.24 217.223 218.261C217.114 218.996 217.228 219.738 217.552 220.408C217.853 221.028 217.984 221.719 217.93 222.407L217.57 226.525C217.349 229.046 215.644 231.154 213.224 231.895L206.785 233.87C205.357 234.308 203.875 234.53 202.381 234.53Z" fill="black"/>
<path fill-rule="evenodd" clip-rule="evenodd" d="M64.92 226.847C64.92 235.766 72.1517 242.999 81.0723 242.999C89.993 242.999 97.2247 235.766 97.2247 226.847C97.2247 217.926 89.993 210.694 81.0723 210.694C72.1517 210.694 64.92 217.926 64.92 226.847Z" fill="black"/>
<path fill-rule="evenodd" clip-rule="evenodd" d="M70.2086 226.847C70.2086 232.846 75.0725 237.71 81.0723 237.71C87.0722 237.71 91.9361 232.846 91.9361 226.847C91.9361 220.847 87.0722 215.982 81.0723 215.982C75.0725 215.982 70.2086 220.847 70.2086 226.847Z" fill="white"/>
<path fill-rule="evenodd" clip-rule="evenodd" d="M81.0725 216.247C75.228 216.247 70.4732 221.002 70.4732 226.847C70.4732 232.691 75.228 237.445 81.0725 237.445C86.9168 237.445 91.6715 232.691 91.6715 226.847C91.6715 221.002 86.9168 216.247 81.0725 216.247ZM81.0725 237.974C74.9362 237.974 69.944 232.982 69.944 226.847C69.944 220.71 74.9362 215.718 81.0725 215.718C87.2086 215.718 92.2007 220.71 92.2007 226.847C92.2007 232.982 87.2086 237.974 81.0725 237.974Z" fill="black"/>
<path fill-rule="evenodd" clip-rule="evenodd" d="M72.3544 226.847C72.3544 231.661 76.2575 235.565 81.0724 235.565C85.8873 235.565 89.7904 231.661 89.7904 226.847C89.7904 222.031 85.8873 218.129 81.0724 218.129C76.2575 218.129 72.3544 222.031 72.3544 226.847Z" fill="white"/>
<path fill-rule="evenodd" clip-rule="evenodd" d="M81.0724 218.393C76.4112 218.393 72.6189 222.185 72.6189 226.847C72.6189 231.508 76.4112 235.3 81.0724 235.3C85.7336 235.3 89.5258 231.508 89.5258 226.847C89.5258 222.185 85.7336 218.393 81.0724 218.393ZM81.0724 235.829C76.1193 235.829 72.0897 231.799 72.0897 226.847C72.0897 221.893 76.1193 217.864 81.0724 217.864C86.0254 217.864 90.055 221.893 90.055 226.847C90.055 231.799 86.0254 235.829 81.0724 235.829Z" fill="black"/>
<path fill-rule="evenodd" clip-rule="evenodd" d="M168.685 226.847C168.685 235.766 175.918 242.999 184.838 242.999C193.758 242.999 200.99 235.766 200.99 226.847C200.99 217.926 193.758 210.694 184.838 210.694C175.918 210.694 168.685 217.926 168.685 226.847Z" fill="black"/>
<path fill-rule="evenodd" clip-rule="evenodd" d="M173.974 226.847C173.974 232.846 178.838 237.71 184.838 237.71C190.837 237.71 195.702 232.846 195.702 226.847C195.702 220.847 190.837 215.982 184.838 215.982C178.838 215.982 173.974 220.847 173.974 226.847Z" fill="white"/>
<path fill-rule="evenodd" clip-rule="evenodd" d="M184.838 216.247C178.993 216.247 174.239 221.002 174.239 226.847C174.239 232.691 178.993 237.445 184.838 237.445C190.682 237.445 195.437 232.691 195.437 226.847C195.437 221.002 190.682 216.247 184.838 216.247ZM184.838 237.974C178.702 237.974 173.71 232.982 173.71 226.847C173.71 220.71 178.702 215.718 184.838 215.718C190.974 215.718 195.966 220.71 195.966 226.847C195.966 232.982 190.974 237.974 184.838 237.974Z" fill="black"/>
<path fill-rule="evenodd" clip-rule="evenodd" d="M176.12 226.847C176.12 231.661 180.023 235.565 184.838 235.565C189.653 235.565 193.556 231.661 193.556 226.847C193.556 222.031 189.653 218.129 184.838 218.129C180.023 218.129 176.12 222.031 176.12 226.847Z" fill="white"/>
<path fill-rule="evenodd" clip-rule="evenodd" d="M184.838 218.393C180.176 218.393 176.384 222.185 176.384 226.847C176.384 231.508 180.176 235.3 184.838 235.3C189.499 235.3 193.291 231.508 193.291 226.847C193.291 222.185 189.499 218.393 184.838 218.393ZM184.838 235.829C179.885 235.829 175.855 231.799 175.855 226.847C175.855 221.893 179.885 217.864 184.838 217.864C189.791 217.864 193.82 221.893 193.82 226.847C193.82 231.799 189.791 235.829 184.838 235.829Z" fill="black"/>
<path fill-rule="evenodd" clip-rule="evenodd" d="M72.7452 126.25C73.1544 126.056 74.6378 125.532 75.5489 123.931C76.1929 122.8 76.6789 120.906 75.9494 119.756C75.7673 119.469 75.17 118.695 72.3446 118.829C68.7636 118.999 66.2467 120.371 66.2467 120.371C60.412 123.55 59.1798 127.481 54.4206 130.541C48.3264 134.459 45.3532 131.119 42.705 134.483C38.4017 139.949 40.0444 154.927 48.5126 161.038C54.2322 165.164 63.1861 165.282 67.2378 160.11C73.8529 151.663 67.8091 128.588 72.7452 126.25Z" fill="black"/>
<path fill-rule="evenodd" clip-rule="evenodd" d="M74.908 241.457L74.6678 250.394L71.5113 250.735L69.9496 241.118L74.908 241.457Z" fill="white"/>
<path fill-rule="evenodd" clip-rule="evenodd" d="M70.2643 241.405L71.7324 250.445L74.4095 250.156L74.6367 241.704L70.2643 241.405ZM71.5111 251C71.3829 251 71.2711 250.907 71.2501 250.778L69.6884 241.16C69.6755 241.08 69.6997 241 69.7541 240.94C69.8084 240.88 69.8862 240.85 69.9678 240.854L74.9262 241.193C75.0677 241.204 75.1765 241.322 75.1725 241.464L74.9323 250.402C74.9288 250.534 74.8279 250.643 74.6963 250.657L71.5398 250.999C71.5301 250.999 71.5205 251 71.5111 251Z" fill="black"/>
<path fill-rule="evenodd" clip-rule="evenodd" d="M92.8194 244.391L93.323 251.51L89.1517 251.851L87.6626 244.391H92.8194Z" fill="white"/>
<path fill-rule="evenodd" clip-rule="evenodd" d="M87.9853 244.656L89.3651 251.568L93.0404 251.268L92.5728 244.656H87.9853ZM89.1515 252.115C89.0266 252.115 88.9171 252.028 88.8924 251.903L87.4032 244.444C87.3877 244.366 87.4078 244.285 87.458 244.224C87.5083 244.163 87.5835 244.127 87.6626 244.127H92.8194C92.9582 244.127 93.0735 244.234 93.0834 244.373L93.5869 251.491C93.5971 251.636 93.489 251.762 93.3445 251.773L89.1733 252.115C89.166 252.115 89.1588 252.115 89.1515 252.115Z" fill="black"/>
<path fill-rule="evenodd" clip-rule="evenodd" d="M88.0369 254.917C87.7476 254.725 87.5715 254.4 87.5625 254.053C87.5352 253.008 87.5317 250.783 87.9531 249.948C88.5121 248.838 90.8182 250.385 90.8182 250.385C90.8182 250.385 92.1679 248.514 92.9582 248.12C93.3674 247.916 95.761 249.51 98.1738 251.682C100.818 254.063 102.012 254.822 102.582 256.874C102.849 257.838 102.142 258.806 101.145 258.877C98.7164 259.051 93.815 258.761 88.0369 254.917Z" fill="white"/>
<path fill-rule="evenodd" clip-rule="evenodd" d="M88.6916 249.811C88.6148 249.811 88.5427 249.818 88.4771 249.836C88.3424 249.871 88.251 249.944 88.1896 250.067C87.9119 250.618 87.7764 252.104 87.827 254.046C87.8339 254.31 87.9672 254.552 88.1834 254.696C93.9029 258.502 98.7475 258.784 101.126 258.613C101.53 258.584 101.897 258.377 102.132 258.043C102.36 257.72 102.431 257.32 102.327 256.945C101.868 255.293 101.015 254.543 99.146 252.899C98.7971 252.592 98.415 252.256 97.9969 251.879C95.4065 249.547 93.4278 248.368 93.0582 248.368C93.058 248.368 93.0575 248.368 93.0571 248.368C92.4532 248.686 91.3937 250.039 91.0327 250.54C90.9492 250.655 90.7892 250.684 90.6708 250.604C90.3124 250.364 89.3351 249.811 88.6916 249.811ZM100.076 259.18C97.3992 259.18 92.9749 258.52 87.8904 255.137C87.5308 254.898 87.3095 254.495 87.2981 254.059C87.2665 252.852 87.279 250.697 87.7169 249.828C87.8462 249.572 88.0626 249.397 88.3429 249.324C89.1236 249.119 90.2678 249.736 90.7516 250.028C91.1399 249.511 92.1472 248.228 92.8403 247.884C93.6379 247.486 97.0885 250.349 98.3509 251.485C98.7676 251.861 99.148 252.196 99.4956 252.502C101.387 254.165 102.336 255 102.837 256.804C102.984 257.332 102.884 257.894 102.564 258.349C102.237 258.812 101.727 259.102 101.164 259.141C100.844 259.164 100.48 259.18 100.076 259.18Z" fill="black"/>
<path fill-rule="evenodd" clip-rule="evenodd" d="M98.9448 257.252C96.4087 257.252 92.2764 256.654 88.2762 253.462C88.1621 253.37 88.1432 253.204 88.2344 253.09C88.326 252.976 88.4923 252.956 88.6062 253.048C94.7649 257.963 101.227 256.536 101.292 256.522C101.433 256.489 101.576 256.577 101.609 256.72C101.642 256.861 101.554 257.004 101.412 257.036C101.387 257.042 100.445 257.252 98.9448 257.252Z" fill="black"/>
<path fill-rule="evenodd" clip-rule="evenodd" d="M76.155 252.568L76.1089 247.675C76.1089 247.675 75.1278 246.191 73.7825 247.397C73.7825 247.397 72.5388 245.653 70.2305 247.826C70.2305 247.826 66.9821 253.882 65.5441 257.483C65.1593 258.448 65.8472 259.504 66.885 259.528C68.3758 259.562 70.3039 259.483 71.1436 258.914C72.4559 258.028 74.7028 255.23 75.6823 253.969C75.9938 253.568 76.1598 253.075 76.155 252.568Z" fill="white"/>
<path fill-rule="evenodd" clip-rule="evenodd" d="M70.4431 247.99C70.1647 248.512 67.1465 254.183 65.7899 257.581C65.6378 257.962 65.6801 258.377 65.9058 258.718C66.1285 259.055 66.4877 259.254 66.891 259.264C68.9246 259.31 70.3834 259.109 70.9952 258.696C72.2873 257.822 74.5573 254.986 75.4733 253.807C75.7465 253.456 75.8947 253.016 75.8904 252.57L75.845 247.763C75.7316 247.619 75.402 247.252 74.9575 247.196C74.6336 247.156 74.2985 247.29 73.9592 247.594C73.9032 247.644 73.8277 247.668 73.7534 247.66C73.6787 247.651 73.6109 247.612 73.5672 247.55C73.5536 247.532 73.2062 247.067 72.5496 247.006C71.9156 246.948 71.208 247.279 70.4431 247.99ZM67.4833 259.8C67.2882 259.8 67.0867 259.798 66.8786 259.793C66.2995 259.78 65.784 259.494 65.4642 259.01C65.1463 258.529 65.0843 257.921 65.2984 257.386C66.7253 253.811 69.9647 247.763 69.9972 247.702C70.0108 247.676 70.0283 247.654 70.049 247.634C70.9458 246.79 71.8082 246.401 72.6102 246.48C73.19 246.538 73.5922 246.828 73.809 247.033C74.2064 246.74 74.6158 246.618 75.0281 246.672C75.8222 246.774 76.3093 247.498 76.3296 247.529C76.3578 247.571 76.373 247.621 76.3735 247.672L76.4197 252.565C76.425 253.13 76.2374 253.686 75.8912 254.132C74.7341 255.62 72.598 258.251 71.2918 259.134C70.6375 259.577 69.3578 259.8 67.4833 259.8Z" fill="black"/>
<path fill-rule="evenodd" clip-rule="evenodd" d="M73.784 250.3C73.6378 250.3 73.5193 250.181 73.5192 250.034L73.5179 247.397C73.5178 247.25 73.6363 247.133 73.7825 247.132C73.9285 247.132 74.0471 247.25 74.0472 247.397L74.0485 250.034C74.0486 250.181 73.9301 250.298 73.784 250.3Z" fill="black"/>
<path fill-rule="evenodd" clip-rule="evenodd" d="M94.0858 244.795C94.0858 244.795 95.2759 226.826 93.3231 210.665C91.3701 194.502 84.1057 171.422 84.1057 171.422C84.1057 171.422 76.2901 171.067 70.6011 171.832C64.912 172.596 62.6604 171.81 62.6604 171.81C62.6604 171.81 58.4134 176.672 58.7601 185.815C59.1066 194.958 69.0168 233.521 68.6412 242.573C68.6412 242.573 71.974 244.248 76.291 243.415L74.5018 191.442C74.5018 191.442 78.204 202.141 79.9417 209.471C81.3585 215.447 83.8162 219.312 83.8162 219.312C83.8162 219.312 83.7119 233.202 86.8999 244.732C86.8999 244.732 90.6658 245.91 94.0858 244.795Z" fill="black"/>
<path fill-rule="evenodd" clip-rule="evenodd" d="M94.0858 244.795H94.0884H94.0858ZM87.1156 244.518C87.8014 244.706 90.9415 245.471 93.8329 244.597C93.949 242.671 94.884 225.79 93.0603 210.696C91.2225 195.486 84.5856 173.86 83.9086 171.679C82.6924 171.632 75.7539 171.407 70.6363 172.094C65.7725 172.747 63.3997 172.283 62.7553 172.114C62.11 172.939 58.7167 177.689 59.0245 185.806C59.1809 189.93 61.2988 200.096 63.5411 210.86C66.2478 223.855 69.0459 237.287 68.9117 242.406C69.589 242.702 72.4569 243.815 76.0185 243.196L74.2373 191.45C74.2327 191.32 74.3247 191.206 74.4534 191.182C74.5825 191.158 74.7091 191.232 74.7519 191.356C74.7889 191.462 78.4783 202.151 80.1994 209.41C81.5881 215.268 84.0151 219.132 84.0396 219.17C84.0669 219.212 84.0811 219.263 84.0808 219.313C84.0798 219.451 84.0144 233.185 87.1156 244.518ZM90.8094 245.543C88.6439 245.543 86.9263 245.017 86.8207 244.984C86.7351 244.957 86.6688 244.889 86.6448 244.801C83.6055 233.81 83.5501 220.519 83.5513 219.386C83.22 218.843 80.9941 215.057 79.6843 209.532C78.3801 204.031 75.9388 196.546 74.8281 193.229L76.5553 243.406C76.5599 243.536 76.4689 243.65 76.341 243.676C71.985 244.514 68.662 242.879 68.5224 242.809C68.4295 242.762 68.3725 242.665 68.377 242.562C68.5806 237.649 65.7552 224.086 63.0229 210.968C60.7761 200.183 58.6537 189.994 58.4955 185.825C58.149 176.683 62.4179 171.685 62.4612 171.636C62.5324 171.554 62.6458 171.524 62.7477 171.56C62.7694 171.568 65.0313 172.313 70.5658 171.57C76.2132 170.81 84.0394 171.154 84.1177 171.157C84.2287 171.162 84.3247 171.236 84.3582 171.342C84.4308 171.574 91.6522 194.632 93.5856 210.632C95.5192 226.634 94.3619 244.633 94.35 244.813C94.3427 244.921 94.2706 245.014 94.1677 245.047C93.0321 245.417 91.8672 245.543 90.8094 245.543Z" fill="white"/>
<path fill-rule="evenodd" clip-rule="evenodd" d="M87.8367 225.539C87.7525 225.539 87.6697 225.499 87.6183 225.425L84.8894 221.453C84.8067 221.333 84.8372 221.167 84.9576 221.084C85.078 221.003 85.243 221.033 85.3256 221.153L88.0546 225.125C88.1373 225.245 88.1068 225.409 87.9864 225.492C87.9406 225.524 87.8885 225.539 87.8367 225.539Z" fill="white"/>
<path fill-rule="evenodd" clip-rule="evenodd" d="M69.4825 215.882C68.53 215.882 67.3211 215.698 66.3132 214.949C66.1957 214.862 66.1713 214.697 66.2583 214.579C66.3456 214.462 66.5112 214.438 66.6285 214.524C68.3837 215.826 70.9519 215.196 70.9779 215.19C71.1196 215.154 71.2635 215.24 71.2993 215.381C71.3352 215.522 71.2499 215.666 71.1083 215.702C71.0525 215.717 70.3819 215.882 69.4825 215.882Z" fill="white"/>
<path fill-rule="evenodd" clip-rule="evenodd" d="M58.4716 175.087C59.3984 176.125 61.2755 175.942 64.9919 175.531C70.7965 174.892 71.793 173.582 75.544 173.213C82.23 172.554 84.9787 176.134 87.3716 174.488C88.8271 173.488 90.029 170.638 87.8698 161.844C87.1684 158.515 86.4799 155.15 85.8052 151.751C84.8772 147.073 83.9987 142.446 83.1674 137.873C78.5215 137.47 74.5688 137.656 71.5747 137.969C67.6686 138.378 64.7122 139.075 63.503 139.379C60.5454 140.12 58.0079 141.017 55.8216 141.896C58.0418 145.12 56.9316 149.5 59.1517 152.724C59.1116 155.172 56.749 173.158 58.4716 175.087Z" fill="white"/>
<path fill-rule="evenodd" clip-rule="evenodd" d="M108.65 132.422C108.65 132.422 112.182 129.148 113.188 128.312C114.332 127.363 111.715 127.05 108.363 130.122L108.65 132.422Z" fill="white"/>
<path fill-rule="evenodd" clip-rule="evenodd" d="M108.643 130.225L108.849 131.879C109.792 131.008 112.204 128.785 113.019 128.11C113.107 128.035 113.155 127.979 113.178 127.943C112.803 127.784 110.948 128.152 108.643 130.225ZM108.65 132.688C108.62 132.688 108.589 132.683 108.56 132.672C108.467 132.637 108.4 132.554 108.388 132.456L108.1 130.154C108.09 130.069 108.121 129.984 108.184 129.926C110.634 127.682 112.65 127.214 113.346 127.446C113.624 127.538 113.698 127.724 113.717 127.828C113.759 128.051 113.638 128.282 113.357 128.516C112.368 129.337 108.866 132.584 108.83 132.617C108.781 132.664 108.716 132.688 108.65 132.688Z" fill="black"/>
<path fill-rule="evenodd" clip-rule="evenodd" d="M108.946 131.759C108.966 131.94 108.989 132.121 109.021 132.301C109.076 132.605 109.15 133.339 108.71 133.806C108.281 134.261 106.204 135.391 105.223 135.911C104.888 136.09 104.593 136.332 104.356 136.628C104.029 137.038 104.917 141.379 104.917 141.379L101.352 140.104C101.352 140.104 101.78 134.18 102.562 131.773C103.345 129.366 105.413 128.224 105.947 128.299C106.482 128.374 106.645 129.398 106.645 129.398C106.645 129.398 107.803 128.504 108.506 128.983C108.874 129.234 108.695 129.659 108.753 130.069L108.946 131.759Z" fill="white"/>
<path fill-rule="evenodd" clip-rule="evenodd" d="M101.631 139.924L104.566 140.972C104.183 139.034 103.84 136.85 104.15 136.463C104.409 136.139 104.728 135.874 105.099 135.678C106.957 134.692 108.235 133.925 108.517 133.625C108.876 133.244 108.807 132.605 108.761 132.348C108.726 132.155 108.703 131.965 108.683 131.789L108.49 130.099C108.47 129.958 108.475 129.815 108.48 129.688C108.489 129.396 108.482 129.287 108.357 129.202C107.913 128.899 107.087 129.392 106.806 129.608C106.732 129.665 106.634 129.678 106.547 129.644C106.461 129.61 106.398 129.533 106.383 129.44C106.327 129.091 106.131 128.592 105.91 128.561C105.581 128.514 103.584 129.486 102.814 131.855C102.13 133.957 101.714 138.87 101.631 139.924ZM104.917 141.643C104.887 141.643 104.857 141.638 104.828 141.628L101.263 140.353C101.151 140.314 101.08 140.203 101.088 140.086C101.106 139.842 101.527 134.101 102.311 131.692C103.118 129.21 105.259 127.934 105.984 128.036C106.451 128.102 106.695 128.603 106.812 128.971C107.256 128.71 108.057 128.357 108.655 128.764C109.032 129.02 109.019 129.401 109.008 129.706C109.005 129.821 109.001 129.93 109.015 130.032L109.209 131.729C109.229 131.905 109.251 132.08 109.282 132.254C109.342 132.59 109.426 133.432 108.903 133.987C108.48 134.436 106.736 135.408 105.347 136.145C105.041 136.308 104.777 136.525 104.563 136.794C104.438 137.096 104.78 139.387 105.177 141.325C105.196 141.419 105.163 141.516 105.091 141.578C105.042 141.622 104.98 141.643 104.917 141.643Z" fill="black"/>
<path fill-rule="evenodd" clip-rule="evenodd" d="M105.734 134.152C105.656 134.152 105.577 134.141 105.498 134.119C105.05 133.994 104.556 133.472 104.514 132.378C104.452 130.748 106.474 129.196 106.56 129.131C106.676 129.043 106.842 129.065 106.93 129.181C107.019 129.298 106.996 129.464 106.88 129.552C106.861 129.566 104.991 131.003 105.043 132.358C105.072 133.116 105.363 133.532 105.64 133.609C105.807 133.656 105.973 133.576 106.095 133.39C106.505 132.762 106.415 132.139 106.414 132.133C106.392 131.988 106.491 131.854 106.635 131.831C106.779 131.809 106.915 131.908 106.937 132.053C106.942 132.086 107.057 132.884 106.538 133.679C106.338 133.982 106.044 134.152 105.734 134.152Z" fill="black"/>
<path fill-rule="evenodd" clip-rule="evenodd" d="M100.242 138.726C102.088 139.135 104.137 139.774 105.661 140.62C106.115 142.876 105.98 146.858 104.138 151.835C103.374 153.899 102.474 156.329 100.471 157.622C96.6393 160.097 89.6353 157.852 83.3473 152.004C83.2873 147.294 83.2274 142.583 83.1673 137.873C84.8085 138.432 86.2715 139.417 87.4059 140.728L89.3909 143.021C91.1724 146.237 93.5624 148.446 95.3971 148.042C96.8955 147.71 97.7154 145.567 99.3552 141.28C100.201 139.068 99.8783 140.098 100.242 138.726Z" fill="white"/>
<path fill-rule="evenodd" clip-rule="evenodd" d="M53.6639 170.694L58.6645 175.235L60.6212 172.082L66.2478 170.694C66.2478 170.694 66.03 172.226 63.143 172.601L67.8022 172.498C67.8022 172.498 67.1078 173.812 64.2002 173.656L67.1916 174.166C67.1916 174.166 65.2542 174.601 64.3176 175.003C63.3812 175.405 63.3812 175.405 63.3812 175.405C63.3812 175.405 62.4296 175.993 61.8045 176.708C61.1795 177.422 60.1759 178.216 58.8241 178.453C57.4723 178.69 51.0302 175.373 51.0302 175.373L53.6639 170.694Z" fill="white"/>
<path fill-rule="evenodd" clip-rule="evenodd" d="M51.3959 175.264C53.9648 176.572 57.8783 178.349 58.7785 178.192C60.1926 177.944 61.1565 177.047 61.6052 176.533C62.2491 175.798 63.2018 175.205 63.2421 175.181C63.2533 175.174 63.2648 175.168 63.2768 175.163L64.2132 174.76C64.6619 174.568 65.3219 174.37 65.9011 174.214L64.1558 173.916C64.0176 173.893 63.9217 173.766 63.9374 173.627C63.9529 173.488 64.0785 173.386 64.2144 173.392C65.8178 173.478 66.7015 173.098 67.1546 172.777L63.1489 172.865C63.0039 172.868 62.8897 172.76 62.8793 172.62C62.8686 172.48 62.9695 172.356 63.1091 172.338C64.803 172.118 65.5052 171.503 65.7927 171.079L60.7892 172.314L58.8894 175.375C58.848 175.441 58.779 175.487 58.7012 175.498C58.6226 175.507 58.5447 175.484 58.4865 175.432L53.7317 171.113L51.3959 175.264ZM58.6859 178.728C57.0186 178.728 51.5504 175.939 50.9091 175.609C50.8451 175.576 50.7973 175.518 50.7767 175.45C50.7559 175.38 50.7642 175.306 50.7996 175.243L53.4331 170.564C53.4727 170.495 53.5419 170.446 53.6215 170.434C53.7007 170.42 53.7821 170.444 53.8417 170.498L58.6071 174.826L60.3963 171.943C60.4328 171.884 60.4907 171.842 60.5577 171.826L66.1844 170.437C66.27 170.416 66.36 170.44 66.4251 170.498C66.4904 170.557 66.5221 170.645 66.5099 170.731C66.5025 170.783 66.3605 171.656 65.1481 172.291L67.7963 172.234C67.8869 172.236 67.9778 172.279 68.0274 172.36C68.0766 172.439 68.0799 172.538 68.0361 172.621C68.0135 172.664 67.6121 173.388 66.2825 173.742L67.236 173.904C67.3605 173.926 67.4528 174.032 67.4561 174.158C67.4594 174.284 67.373 174.396 67.2498 174.424C67.2305 174.427 65.3251 174.859 64.422 175.247L63.5046 175.64C63.3804 175.72 62.5515 176.256 62.0037 176.882C61.509 177.448 60.4441 178.438 58.8697 178.714C58.8151 178.723 58.7535 178.728 58.6859 178.728Z" fill="black"/>
<path fill-rule="evenodd" clip-rule="evenodd" d="M51.1623 176.411L55.316 170.694C55.316 170.694 46.3228 160.872 61.9731 152.724L56.5988 141.707C56.5988 141.707 43.308 149.185 43.5399 160.872C43.7718 172.559 51.1623 176.411 51.1623 176.411Z" fill="white"/>
<path fill-rule="evenodd" clip-rule="evenodd" d="M64.9915 175.796C64.8584 175.796 64.7438 175.696 64.7288 175.56C64.7127 175.415 64.8175 175.285 64.9629 175.268C68.1152 174.922 69.841 174.373 71.3637 173.89C72.6132 173.494 73.7932 173.119 75.518 172.949C79.0587 172.6 81.5553 173.436 83.379 174.046C85.0681 174.61 86.1842 174.983 87.2217 174.27C89.1672 172.932 89.2987 168.773 87.6127 161.906C87.1531 159.725 86.6584 157.321 86.0988 154.548C86.0773 154.441 86.1236 154.331 86.2155 154.272C86.3074 154.213 86.4262 154.217 86.5143 154.282C91.8297 158.162 97.2517 159.386 100.328 157.4C102.257 156.155 103.124 153.81 103.89 151.742C106.06 145.88 105.648 142.008 105.425 140.792C104.165 140.113 102.406 139.496 100.433 139.04C100.403 139.154 100.38 139.246 100.361 139.32C100.268 139.682 100.264 139.696 100.121 140.051C100.03 140.278 99.8784 140.652 99.6024 141.374C97.9308 145.745 97.0918 147.938 95.4541 148.3C93.5954 148.71 91.1313 146.699 89.1728 143.173L87.2058 140.9C86.1099 139.634 84.695 138.678 83.1123 138.134C79.2679 137.802 75.3952 137.834 71.6022 138.232C68.8587 138.52 66.0804 139.004 63.5674 139.634C61.0092 140.276 57.8942 141.377 55.5481 142.448C55.4349 142.505 55.3144 142.566 55.2086 142.619C54.2276 143.114 54.2089 143.124 54.0654 142.916C54.0223 142.854 54.008 142.775 54.0266 142.702C54.0451 142.627 54.0946 142.565 54.1623 142.53C54.5192 142.348 54.9061 142.16 55.3161 141.973C55.5663 141.848 55.724 141.775 55.8304 141.743C58.1356 140.731 61.0317 139.726 63.4387 139.122C65.9752 138.485 68.779 137.995 71.5471 137.706C75.3846 137.304 79.3016 137.272 83.1902 137.61C83.2116 137.611 83.2324 137.616 83.2526 137.622C84.9364 138.196 86.4417 139.21 87.6061 140.555L89.5911 142.848C89.6029 142.862 89.6136 142.877 89.6223 142.894C91.4384 146.171 93.7354 148.136 95.3401 147.782C96.6994 147.484 97.5043 145.379 99.108 141.185C99.3858 140.459 99.5378 140.081 99.6297 139.853C99.7624 139.524 99.7624 139.524 99.8478 139.189C99.8794 139.066 99.9222 138.899 99.9858 138.659C100.022 138.521 100.161 138.436 100.299 138.468C101.562 138.748 103.954 139.369 105.789 140.388C105.857 140.426 105.905 140.491 105.92 140.568C106.141 141.665 106.682 145.724 104.386 151.926C103.631 153.966 102.692 156.504 100.615 157.844C97.412 159.913 92.1404 158.857 86.7504 155.1C87.2557 157.597 87.7077 159.791 88.1286 161.789C89.8951 168.983 89.6972 173.21 87.5215 174.706C86.267 175.568 84.9182 175.118 83.2113 174.547C81.3338 173.92 78.9974 173.138 75.57 173.476C73.9005 173.64 72.799 173.99 71.5239 174.395C69.9776 174.886 68.2252 175.441 65.0208 175.795C65.0109 175.795 65.0011 175.796 64.9915 175.796Z" fill="black"/>
<path fill-rule="evenodd" clip-rule="evenodd" d="M51.1622 176.675C51.1207 176.675 51.0788 176.665 51.04 176.645C50.9648 176.606 43.5077 172.585 43.2752 160.877C43.0615 150.104 53.3741 143.11 55.4436 141.817C55.5677 141.739 55.7309 141.778 55.8083 141.901C55.8857 142.025 55.8479 142.188 55.724 142.266C53.697 143.532 43.5964 150.379 43.8046 160.866C44.0095 171.197 49.9284 175.346 51.0889 176.062L54.9787 170.708C54.3682 169.975 52.0764 166.924 52.5442 162.984C52.9266 159.763 55.0576 156.823 58.8781 154.247C58.9628 154.189 59.0728 154.187 59.1607 154.238C59.2487 154.29 59.2988 154.388 59.2897 154.49C59.2296 155.153 59.152 155.952 59.065 156.846C58.5385 162.264 57.4429 173.537 58.6691 174.911C58.7664 175.02 58.7569 175.187 58.6478 175.284C58.5386 175.381 58.3717 175.372 58.2742 175.262C57.0004 173.836 57.7061 165.358 58.5383 156.796C58.6016 156.143 58.6601 155.542 58.7104 155.006C55.3166 157.411 53.42 160.112 53.0704 163.042C52.5694 167.237 55.482 170.484 55.5114 170.515C55.5961 170.609 55.6039 170.748 55.5301 170.85L51.3764 176.567C51.3251 176.636 51.2447 176.675 51.1622 176.675Z" fill="black"/>
<path fill-rule="evenodd" clip-rule="evenodd" d="M75.5812 138.238C74.1096 137.996 73.0546 136.687 73.1323 135.198L73.253 132.886C74.6492 132.776 75.8113 132.11 75.8078 131.669C75.8062 131.454 75.2935 129.352 74.9734 128.483C75.2437 128.263 75.5729 127.656 74.9899 127.285C74.4072 126.914 73.098 124.549 73.098 124.549C71.4829 122.671 71.0161 125.317 69.8096 125.538C68.9746 125.69 68.5211 126.199 68.8367 127.291C69.152 128.383 68.5523 127.836 67.9375 127.524C67.323 127.213 66.9052 127.454 67.2424 128.448C67.5796 129.44 68.8085 130.037 68.8085 130.037L69.3907 131.18L68.1631 136.804C67.931 137.867 67.1671 138.734 66.1423 139.1L64.4509 139.703L73.3411 144.359L77.635 138.574L75.5812 138.238Z" fill="white"/>
<path fill-rule="evenodd" clip-rule="evenodd" d="M65.1093 139.75L73.2634 144.019L77.1637 138.764L75.5384 138.499C73.9311 138.235 72.7831 136.811 72.868 135.185L72.9889 132.871C72.9957 132.738 73.1 132.631 73.2326 132.622C74.6688 132.509 75.5319 131.857 75.5432 131.67C75.5313 131.464 75.0402 129.43 74.7249 128.575C74.6859 128.468 74.7186 128.35 74.8062 128.278C74.9134 128.191 75.0596 127.984 75.0487 127.795C75.0421 127.685 74.9764 127.59 74.8476 127.508C74.2429 127.123 73.0693 125.042 72.8798 124.702C72.5578 124.332 72.2756 124.145 72.0412 124.145C72.0411 124.145 72.0411 124.145 72.041 124.145C71.7247 124.145 71.4268 124.49 71.1115 124.856C70.7532 125.272 70.3825 125.702 69.8572 125.798C69.4899 125.866 69.2394 126.004 69.1125 126.209C68.9707 126.437 68.9635 126.776 69.0908 127.218C69.2126 127.639 69.2492 127.955 69.0318 128.125C68.7895 128.315 68.4846 128.138 68.1314 127.934C68.0307 127.876 67.9246 127.814 67.8178 127.76C67.594 127.646 67.4594 127.649 67.427 127.678C67.3911 127.708 67.333 127.892 67.4928 128.363C67.7898 129.236 68.913 129.793 68.9242 129.799C68.9758 129.824 69.0181 129.865 69.0442 129.917L69.6265 131.06C69.6543 131.114 69.6622 131.177 69.6493 131.237L68.4217 136.86C68.1682 138.019 67.3494 138.95 66.2311 139.349L65.1093 139.75ZM73.341 144.623C73.2994 144.623 73.2574 144.613 73.2183 144.593L64.328 139.938C64.2349 139.889 64.1794 139.79 64.1869 139.685C64.1942 139.58 64.263 139.489 64.362 139.454L66.0534 138.851C66.9984 138.514 67.6904 137.728 67.9046 136.747L69.1119 131.216L68.6112 130.232C68.3143 130.073 67.3111 129.473 66.9916 128.533C66.7864 127.928 66.8163 127.506 67.0802 127.277C67.2117 127.163 67.514 127.013 68.0572 127.288C68.1726 127.346 68.2875 127.412 68.3965 127.476C68.4696 127.518 68.5632 127.572 68.6434 127.614C68.6323 127.553 68.6134 127.472 68.5824 127.364C68.4117 126.774 68.4387 126.292 68.6625 125.929C68.8714 125.592 69.2413 125.374 69.7621 125.278C70.1035 125.215 70.4121 124.858 70.7106 124.511C71.0899 124.07 71.482 123.616 72.041 123.616C72.0411 123.616 72.0412 123.616 72.0414 123.616C72.4468 123.616 72.858 123.864 73.2986 124.376C73.3104 124.391 73.3207 124.405 73.3296 124.421C73.8231 125.312 74.749 126.818 75.1321 127.062C75.4789 127.283 75.5654 127.566 75.577 127.765C75.5943 128.064 75.4545 128.353 75.2788 128.554C75.6012 129.502 76.0705 131.416 76.0725 131.666C76.0774 132.293 74.8809 132.96 73.5055 133.126L73.3965 135.212C73.3257 136.568 74.2832 137.758 75.624 137.976L77.6778 138.313C77.769 138.328 77.8456 138.389 77.8803 138.474C77.9149 138.56 77.9025 138.658 77.8474 138.732L73.5536 144.516C73.5022 144.586 73.4224 144.623 73.341 144.623Z" fill="black"/>
<path fill-rule="evenodd" clip-rule="evenodd" d="M72.7516 133.211C71.6851 133.211 71.0237 132.438 70.803 131.964C70.7415 131.832 70.7989 131.674 70.9313 131.612C71.0634 131.551 71.2203 131.608 71.2825 131.74C71.3064 131.79 71.8725 132.942 73.192 132.628C73.3347 132.594 73.4769 132.682 73.5106 132.823C73.5444 132.966 73.4566 133.109 73.3145 133.142C73.1158 133.189 72.9281 133.211 72.7516 133.211Z" fill="black"/>
<path fill-rule="evenodd" clip-rule="evenodd" d="M155.92 247.715C155.92 247.715 155.918 247.715 155.917 247.715L103.331 247.114C103.185 247.111 103.067 246.992 103.069 246.846C103.071 246.7 103.187 246.586 103.337 246.584L155.923 247.186C156.07 247.187 156.186 247.307 156.185 247.453C156.184 247.598 156.065 247.715 155.92 247.715Z" fill="black"/>
<path fill-rule="evenodd" clip-rule="evenodd" d="M168.176 241.579C168.175 241.579 168.174 241.579 168.174 241.579L140.497 241.262C140.351 241.261 140.233 241.141 140.236 240.995C140.237 240.85 140.354 240.733 140.5 240.733C140.501 240.733 140.502 240.733 140.502 240.733L168.18 241.05C168.325 241.052 168.443 241.171 168.442 241.318C168.439 241.463 168.322 241.579 168.176 241.579Z" fill="black"/>
<path fill-rule="evenodd" clip-rule="evenodd" d="M87.6535 73.2585C87.6415 73.2585 87.6294 73.2576 87.6171 73.2561C87.4724 73.2362 87.371 73.1026 87.3909 72.9578L87.6367 71.1676C87.6566 71.0226 87.7894 70.9212 87.935 70.9414C88.0797 70.9613 88.181 71.0949 88.1611 71.2397L87.9153 73.03C87.8971 73.1625 87.7836 73.2585 87.6535 73.2585Z" fill="black"/>
<path fill-rule="evenodd" clip-rule="evenodd" d="M86.7934 79.5245C86.7814 79.5245 86.7693 79.5236 86.757 79.522C86.6123 79.502 86.5109 79.3686 86.5308 79.2238L86.7766 77.4335C86.7965 77.2886 86.9291 77.1875 87.0749 77.2074C87.2195 77.2273 87.3208 77.3608 87.301 77.5056L87.0551 79.2959C87.037 79.4284 86.9235 79.5245 86.7934 79.5245Z" fill="black"/>
<path fill-rule="evenodd" clip-rule="evenodd" d="M85.1463 75.1612C85.1329 75.1612 85.1196 75.1602 85.1059 75.1582L83.3458 74.89C83.2014 74.8678 83.1022 74.7329 83.1241 74.5883C83.1462 74.4439 83.2817 74.3452 83.4257 74.3666L85.1859 74.6348C85.3303 74.6569 85.4296 74.7918 85.4075 74.9364C85.3876 75.0673 85.2748 75.1612 85.1463 75.1612Z" fill="black"/>
<path fill-rule="evenodd" clip-rule="evenodd" d="M91.3066 76.0999C91.2932 76.0999 91.2798 76.099 91.2662 76.0969L89.5062 75.8286C89.3617 75.8065 89.2625 75.6717 89.2846 75.5271C89.3066 75.3826 89.4415 75.2838 89.5861 75.3053L91.346 75.5736C91.4905 75.5957 91.5899 75.7306 91.5678 75.8752C91.5478 76.0061 91.435 76.0999 91.3066 76.0999Z" fill="black"/>
<path fill-rule="evenodd" clip-rule="evenodd" d="M68.3175 66.2834C68.3055 66.2834 68.2934 66.2826 68.2811 66.281C68.1365 66.261 68.0351 66.1276 68.055 65.9826L68.2295 64.7122C68.2494 64.5674 68.3826 64.4656 68.5277 64.486C68.6724 64.5059 68.7737 64.6395 68.7537 64.7842L68.5794 66.0549C68.5611 66.1874 68.4476 66.2834 68.3175 66.2834Z" fill="black"/>
<path fill-rule="evenodd" clip-rule="evenodd" d="M67.7071 70.7303C67.695 70.7303 67.6829 70.7294 67.6706 70.7278C67.5259 70.7078 67.4246 70.5744 67.4444 70.4296L67.6189 69.159C67.6388 69.0142 67.7713 68.913 67.9171 68.9329C68.0618 68.9527 68.1631 69.0863 68.1433 69.2311L67.9688 70.5017C67.9506 70.6343 67.8372 70.7303 67.7071 70.7303Z" fill="black"/>
<path fill-rule="evenodd" clip-rule="evenodd" d="M66.5382 67.6337C66.5249 67.6337 66.5114 67.6327 66.498 67.6307L65.2488 67.4404C65.1042 67.4183 65.0049 67.2833 65.0269 67.1389C65.0491 66.9943 65.1862 66.8958 65.3284 66.9171L66.5775 67.1074C66.7221 67.1295 66.8214 67.2643 66.7994 67.4088C66.7794 67.5399 66.6666 67.6337 66.5382 67.6337Z" fill="black"/>
<path fill-rule="evenodd" clip-rule="evenodd" d="M70.91 68.2999C70.8968 68.2999 70.8834 68.299 70.8699 68.2969L69.6206 68.1066C69.4761 68.0845 69.3769 67.9497 69.3989 67.8051C69.4209 67.6605 69.5569 67.5619 69.7003 67.5833L70.9495 67.7736C71.0941 67.7957 71.1933 67.9306 71.1714 68.0751C71.1513 68.2061 71.0385 68.2999 70.91 68.2999Z" fill="black"/>
<path fill-rule="evenodd" clip-rule="evenodd" d="M86.0546 59.8271H86.0573H86.0546ZM88.1353 58.8916C87.9521 58.8916 87.7679 58.9151 87.5864 58.9626C87.0323 59.1077 86.5698 59.4616 86.2842 59.9589C85.6858 61.0006 86.0524 62.3563 87.1014 62.9809C87.6134 63.286 88.2078 63.372 88.7753 63.2236C89.3294 63.0785 89.792 62.7248 90.0775 62.2275C90.6758 61.1856 90.3092 59.83 89.2603 59.2054C88.9118 58.9979 88.5254 58.8916 88.1353 58.8916ZM88.2252 63.8242C87.741 63.8242 87.2622 63.6927 86.8306 63.4357C85.5347 62.664 85.0837 60.9859 85.8251 59.6952C86.1821 59.074 86.7599 58.632 87.4524 58.4506C88.1573 58.2659 88.8956 58.3725 89.5312 58.7506C90.8269 59.5222 91.278 61.2 90.5365 62.4911C90.1796 63.1123 89.6018 63.5543 88.9094 63.7356C88.6832 63.7949 88.4536 63.8242 88.2252 63.8242Z" fill="black"/>
<path d="M136.499 131.053V132.775H131.345V131.053H136.499ZM132.049 127.047V137H129.82V127.047H132.049ZM138.037 127.047V137H135.815V127.047H138.037Z" fill="black"/>
<path d="M147.99 131.805V132.249C147.99 133.006 147.885 133.685 147.676 134.286C147.471 134.888 147.177 135.4 146.794 135.824C146.416 136.248 145.965 136.574 145.44 136.802C144.921 137.025 144.344 137.137 143.711 137.137C143.077 137.137 142.499 137.025 141.975 136.802C141.451 136.574 140.995 136.248 140.607 135.824C140.225 135.4 139.928 134.888 139.719 134.286C139.509 133.685 139.404 133.006 139.404 132.249V131.805C139.404 131.048 139.509 130.369 139.719 129.768C139.928 129.161 140.222 128.646 140.601 128.223C140.983 127.799 141.437 127.475 141.961 127.252C142.485 127.024 143.064 126.91 143.697 126.91C144.331 126.91 144.91 127.024 145.434 127.252C145.958 127.475 146.409 127.799 146.787 128.223C147.17 128.646 147.466 129.161 147.676 129.768C147.885 130.369 147.99 131.048 147.99 131.805ZM145.741 132.249V131.791C145.741 131.285 145.696 130.839 145.604 130.451C145.513 130.059 145.381 129.731 145.208 129.467C145.035 129.202 144.821 129.004 144.565 128.872C144.31 128.735 144.021 128.667 143.697 128.667C143.36 128.667 143.066 128.735 142.815 128.872C142.565 129.004 142.353 129.202 142.18 129.467C142.011 129.731 141.881 130.059 141.79 130.451C141.703 130.839 141.66 131.285 141.66 131.791V132.249C141.66 132.75 141.703 133.197 141.79 133.589C141.881 133.976 142.013 134.304 142.187 134.573C142.36 134.842 142.572 135.045 142.822 135.182C143.077 135.318 143.374 135.387 143.711 135.387C144.035 135.387 144.322 135.318 144.572 135.182C144.827 135.045 145.042 134.842 145.215 134.573C145.388 134.304 145.518 133.976 145.604 133.589C145.696 133.197 145.741 132.75 145.741 132.249Z" fill="black"/>
<path d="M153.473 127.047V137H151.251V127.047H153.473ZM156.501 127.047V128.776H148.284V127.047H156.501Z" fill="black"/>
<path d="M164.369 135.277V137H159.071V135.277H164.369ZM159.83 127.047V137H157.602V127.047H159.83ZM163.686 131.053V132.721H159.071V131.053H163.686ZM164.376 127.047V128.776H159.071V127.047H164.376Z" fill="black"/>
<path d="M171.957 135.277V137H166.933V135.277H171.957ZM167.691 127.047V137H165.463V127.047H167.691Z" fill="black"/>
</svg>
